<?xml version="1.0" encoding="UTF-8"?>
<svg version="1.1" xmlns="http://www.w3.org/2000/svg" width="1080" height="1080">
<path d="M0 0 C356.4 0 712.8 0 1080 0 C1080 356.4 1080 712.8 1080 1080 C723.6 1080 367.2 1080 0 1080 C0 723.6 0 367.2 0 0 Z " fill="#FEFEFE" transform="translate(0,0)"/>
<path d="M0 0 C1.80989175 -0.00463711 3.61978255 -0.00966295 5.42967224 -0.01504517 C10.32077042 -0.02808806 15.21185491 -0.03459856 20.10296774 -0.03905582 C23.16945798 -0.04200065 26.23594461 -0.04610809 29.30243301 -0.05056 C38.92770235 -0.06421565 48.55296327 -0.07389086 58.17824161 -0.07776189 C69.23111422 -0.08223334 80.28386259 -0.09974698 91.33669746 -0.12876248 C99.9180707 -0.15049569 108.49940929 -0.16047239 117.08080971 -0.16180301 C122.18815733 -0.16284305 127.29538789 -0.16857744 132.40270615 -0.18662262 C137.21764964 -0.20330531 142.03239059 -0.20516276 146.84735298 -0.19648361 C148.59623451 -0.19572381 150.34512786 -0.19991267 152.09398079 -0.20994186 C186.00881015 -0.39273381 217.44168815 8.27727282 243.91845703 30.16113281 C244.80533203 30.89332031 245.69220703 31.62550781 246.60595703 32.37988281 C272.55362663 54.75974784 285.15900435 85.80306558 288.91845703 119.16113281 C289.384137 125.55517178 289.331073 131.95909824 289.30664062 138.36621094 C289.31072007 140.20023407 289.31606954 142.03425473 289.3225708 143.86827087 C289.33608722 148.78774899 289.33101155 153.70703546 289.32143354 158.62651634 C289.31375462 163.81323072 289.32090512 168.99993038 289.32559204 174.18664551 C289.3310259 182.89122414 289.32392061 191.59572603 289.30957031 200.30029297 C289.29324843 210.31543839 289.29853862 220.33040049 289.31504953 230.34554148 C289.32873236 238.99669652 289.33055106 247.64779687 289.32273352 256.29895926 C289.31809413 261.44299409 289.31732779 266.58694321 289.32734299 271.73097229 C289.33611016 276.57066344 289.32981596 281.41012186 289.31266022 286.24978828 C289.30874677 288.00918253 289.30973911 289.76859691 289.31644821 291.52798271 C289.44848915 329.72201232 277.32395877 362.91399564 250.79345703 390.66113281 C241.45658056 399.80185642 230.70132827 407.49964555 218.91845703 413.16113281 C217.76474609 413.73476563 216.61103516 414.30839844 215.42236328 414.89941406 C204.69224042 420.03390518 193.56521263 422.87911248 181.91845703 425.16113281 C181.05029704 425.33261432 180.18213705 425.50409582 179.28766918 425.68077374 C175.39518845 426.23573684 171.57807169 426.30926086 167.65608215 426.30830383 C166.83948378 426.31198052 166.0228854 426.31565721 165.18154162 426.31944531 C162.45297115 426.33043292 159.72443884 426.3343177 156.99584961 426.33813477 C155.03566875 426.34440347 153.07548907 426.35105064 151.11531067 426.35804749 C144.68121156 426.37905387 138.24711233 426.3894514 131.81298828 426.39941406 C129.5914121 426.40346386 127.36983605 426.40758085 125.14826012 426.41176414 C114.70178641 426.43081372 104.25531972 426.44504138 93.80883199 426.45337611 C81.78802106 426.46312721 69.76739532 426.48939203 57.74664956 426.52987701 C48.433356 426.56015588 39.12011514 426.57485637 29.80677336 426.57815713 C24.25560287 426.58049553 18.70463022 426.58929618 13.15351295 426.6146183 C7.91919144 426.6381087 2.68519508 426.64204904 -2.54916573 426.63185692 C-4.45530665 426.63136639 -6.36146473 426.63754154 -8.26755524 426.65141296 C-43.97034653 426.89639044 -75.91747899 413.75437695 -101.50341797 388.83300781 C-124.83356907 365.35378226 -137.66748715 333.67841978 -137.74807739 300.62538147 C-137.73677021 298.79916063 -137.72494318 296.97294296 -137.71264648 295.14672852 C-137.71780414 293.15462613 -137.72509915 291.16252835 -137.73432922 289.17044067 C-137.75261295 283.83368406 -137.74005391 278.49743646 -137.72023892 273.16070199 C-137.7036651 267.53357778 -137.71269072 261.90648114 -137.71775818 256.27934265 C-137.72225733 246.83938612 -137.70654252 237.39962915 -137.6784668 227.9597168 C-137.64639709 217.09410847 -137.64644879 206.22885918 -137.66368157 195.36322528 C-137.67962098 184.84359317 -137.67276739 174.32409088 -137.65574455 163.80446434 C-137.64892773 159.35718452 -137.64985057 154.91001045 -137.65728951 150.46273232 C-137.66502944 145.21500491 -137.65257838 139.96767947 -137.6254406 134.72002029 C-137.61863673 132.8106639 -137.61837106 130.90126937 -137.62565613 128.99191475 C-137.73094264 97.76694607 -127.86690052 70.88879735 -109.08154297 46.16113281 C-108.36482422 45.20464844 -107.64810547 44.24816406 -106.90966797 43.26269531 C-106.30638672 42.56917969 -105.70310547 41.87566406 -105.08154297 41.16113281 C-104.42154297 41.16113281 -103.76154297 41.16113281 -103.08154297 41.16113281 C-102.85466797 40.60039062 -102.62779297 40.03964844 -102.39404297 39.46191406 C-97.78151739 31.37626654 -87.7763375 25.05578377 -80.08154297 20.16113281 C-79.10314453 19.525625 -78.12474609 18.89011719 -77.11669922 18.23535156 C-53.27844961 3.6376125 -27.43698578 0.01648725 0 0 Z " fill="#0E38B0" transform="translate(458.08154296875,323.8388671875)"/>
<path d="M0 0 C0.888013 -0.00043808 1.776026 -0.00087616 2.69094849 -0.00132751 C5.62923082 0.00076427 8.56694417 0.02411377 11.50512695 0.04760742 C13.54107857 0.05320199 15.57703423 0.05747274 17.61299133 0.06047058 C22.97412243 0.07193032 28.33501008 0.10140731 33.69604492 0.13458252 C39.16557522 0.16525903 44.63514482 0.17897075 50.10473633 0.1940918 C60.83856731 0.22627584 71.57221752 0.2774859 82.3059082 0.34057617 C81.60582701 6.16313019 80.61023457 11.15930945 78.5559082 16.65307617 C78.31614258 17.3549707 78.07637695 18.05686523 77.8293457 18.7800293 C76.13187354 23.36932902 74.70038929 25.27410043 70.3059082 27.34057617 C67.4090271 27.71238708 67.4090271 27.71238708 64.1862793 27.70947266 C62.97507416 27.71635605 61.76386902 27.72323944 60.51596069 27.73033142 C58.56733627 27.72109398 58.56733627 27.72109398 56.5793457 27.71166992 C55.22603326 27.71836616 53.87272894 27.72694493 52.5194397 27.73731995 C46.78616665 27.77733838 41.05296962 27.77861639 35.31958008 27.77636719 C31.80582345 27.77631614 28.29256883 27.79545129 24.77894974 27.82570076 C22.79197822 27.83653291 20.80492452 27.82435077 18.81796265 27.81187439 C17.61306183 27.82190994 16.40816101 27.8319455 15.16674805 27.84228516 C13.57387466 27.8420359 13.57387466 27.8420359 11.94882202 27.84178162 C9.18204429 28.09636299 9.18204429 28.09636299 7.49432373 30.25650024 C6.40137958 32.1731519 5.50279526 33.98915689 4.7355957 36.05541992 C4.47907227 36.7418457 4.22254883 37.42827148 3.95825195 38.13549805 C3.70172852 38.84254883 3.44520508 39.54959961 3.1809082 40.27807617 C2.91665039 40.98125977 2.65239258 41.68444336 2.38012695 42.40893555 C1.01307191 46.11108715 0.09072499 49.41649222 -0.6940918 53.34057617 C19.7659082 53.34057617 40.2259082 53.34057617 61.3059082 53.34057617 C62.51978787 58.19609485 61.29371784 60.83024907 59.5090332 65.27807617 C59.20421021 66.06290878 58.89938721 66.84774139 58.58532715 67.65635681 C57.58593382 70.22197369 56.57107364 72.7811639 55.5559082 75.34057617 C54.86514776 77.10524751 54.17537468 78.87030565 53.48657227 80.63574219 C51.76137383 85.05025176 50.02378733 89.45975723 48.28198242 93.86773682 C46.8356468 97.53196191 45.39868336 101.19984017 43.9621582 104.86791992 C41.76323636 110.48033659 39.5565684 116.08961953 37.33129883 121.69165039 C36.39822197 124.10209894 35.54341071 126.52787111 34.6965332 128.96948242 C33.3059082 132.34057617 33.3059082 132.34057617 30.3059082 134.34057617 C27.85965443 134.58667183 27.85965443 134.58667183 24.89595032 134.58108521 C23.21114059 134.5852092 23.21114059 134.5852092 21.49229431 134.5894165 C19.64300072 134.57863068 19.64300072 134.57863068 17.75634766 134.56762695 C16.45868469 134.56791901 15.16102173 134.56821106 13.82403564 134.56851196 C10.26435423 134.56908645 6.70480724 134.55731663 3.1451571 134.54336405 C-0.57443039 134.53087271 -4.29402087 134.52968745 -8.0136261 134.52731323 C-15.05779185 134.52109376 -22.10189562 134.50467664 -29.14603406 134.48461425 C-37.16528937 134.46226977 -45.18454762 134.45126548 -53.20382631 134.44122338 C-69.70061777 134.42031081 -86.19734688 134.38512577 -102.6940918 134.34057617 C-104.31851817 129.46729705 -101.80138677 125.4877576 -100.0065918 120.84057617 C-99.6540332 119.87764648 -99.30147461 118.9147168 -98.93823242 117.92260742 C-98.40939453 116.5362207 -98.40939453 116.5362207 -97.86987305 115.12182617 C-97.54929932 114.2768457 -97.22872559 113.43186523 -96.8984375 112.5612793 C-95.38043712 109.76222569 -94.51965944 108.88041693 -91.6940918 107.34057617 C-88.41432064 106.89317052 -85.1539703 106.94460517 -81.84838867 106.97167969 C-80.84961197 106.96791321 -79.85083527 106.96414673 -78.8217926 106.96026611 C-76.65395547 106.95383182 -74.48609013 106.95416537 -72.31825256 106.96045113 C-68.88893723 106.96954582 -65.46017045 106.95935619 -62.03088379 106.9438324 C-52.28142159 106.90368351 -42.53200179 106.90253357 -32.7824707 106.90478516 C-26.81905252 106.90483618 -20.85593048 106.88570975 -14.89259338 106.85545158 C-11.51108941 106.84459717 -8.13014353 106.85677388 -4.74865723 106.86927795 C-2.67903078 106.86037636 -0.60940892 106.85030296 1.46020508 106.83886719 C2.87389626 106.85348244 2.87389626 106.85348244 4.31614685 106.86839294 C9.45600142 106.86492979 9.45600142 106.86492979 13.85371399 104.43138123 C15.24165811 102.43308062 16.29124461 100.62842226 17.19262695 98.37182617 C17.64025391 97.26774414 17.64025391 97.26774414 18.09692383 96.14135742 C18.39276367 95.38209961 18.68860352 94.6228418 18.9934082 93.84057617 C19.30084961 93.08131836 19.60829102 92.32206055 19.92504883 91.53979492 C21.29048285 88.12770379 22.4104178 84.9225378 23.3059082 81.34057617 C2.5159082 81.01057617 -18.2740918 80.68057617 -39.6940918 80.34057617 C-38.56912328 72.46579653 -38.56912328 72.46579653 -37.17871094 68.91943359 C-36.87037827 68.1221283 -36.56204559 67.324823 -36.24436951 66.50335693 C-35.90937943 65.65944397 -35.57438934 64.81553101 -35.22924805 63.94604492 C-34.70543297 62.59981049 -34.70543297 62.59981049 -34.17103577 61.22637939 C-33.03999303 58.32411057 -31.89859302 55.42604844 -30.7565918 52.52807617 C-29.9777689 50.53818346 -29.19961343 48.54802939 -28.42211914 46.55761719 C-27.26224207 43.58864345 -26.10180742 40.61990299 -24.93835449 37.65232849 C-22.73787057 32.03588944 -20.56844314 26.40957859 -18.44799805 20.76245117 C-17.99352295 19.55693604 -17.53904785 18.3514209 -17.07080078 17.109375 C-16.25843783 14.94735188 -15.45162423 12.78323244 -14.65136719 10.61669922 C-14.29679443 9.67866455 -13.94222168 8.74062988 -13.5769043 7.77416992 C-13.28187012 6.98067139 -12.98683594 6.18717285 -12.68286133 5.36962891 C-9.86027882 -0.42258918 -5.91203347 -0.07590024 0 0 Z " fill="#FCFDFD" transform="translate(550.694091796875,487.659423828125)"/>
<path d="M0 0 C0.80873194 -0.0034177 1.61746388 -0.0068354 2.45070285 -0.01035666 C5.15798257 -0.01694021 7.86426868 0.00504791 10.57145691 0.0269165 C12.5130562 0.02804488 14.4546572 0.02741131 16.39625549 0.02514648 C21.66660186 0.02399803 26.93658466 0.04752879 32.20684648 0.07544231 C37.71481376 0.10043397 43.22278921 0.10279621 48.73080444 0.10754395 C59.16072075 0.11998027 69.59046951 0.15281088 80.02031201 0.1929419 C91.89442266 0.23763908 103.76854128 0.2596415 115.6427151 0.27972364 C140.06851818 0.32154285 164.49417249 0.39190778 188.91984558 0.48101807 C189.96523758 4.09642635 189.72041539 5.84671913 188.37297058 9.39508057 C188.02234558 10.32062744 187.67172058 11.24617432 187.31047058 12.19976807 C186.74586121 13.63836182 186.74586121 13.63836182 186.16984558 15.10601807 C185.62843933 16.55621338 185.62843933 16.55621338 185.07609558 18.03570557 C182.30512519 25.224165 182.30512519 25.224165 178.91984558 27.48101807 C176.24618025 27.67025516 173.67776351 27.74187156 171.00427246 27.7215271 C170.18908227 27.72323595 169.37389207 27.7249448 168.53399915 27.72670543 C165.79314139 27.73000862 163.05252661 27.71898304 160.31169128 27.70806885 C158.35068264 27.70750491 156.38967356 27.70782095 154.42866516 27.70895386 C149.09633146 27.70952906 143.76408724 27.69774763 138.43177438 27.68380594 C132.86238826 27.6713265 127.29300023 27.67013029 121.72360229 27.66775513 C111.1732657 27.66153215 100.62297042 27.64511028 90.07265204 27.62505615 C78.06314322 27.60272256 66.05363245 27.59171012 54.04410803 27.58166528 C29.33599762 27.56074476 4.62792391 27.52555292 -20.08015442 27.48101807 C-19.25348179 22.37253398 -18.00846345 17.7383716 -16.33015442 12.85601807 C-16.09038879 12.10578369 -15.85062317 11.35554932 -15.60359192 10.58258057 C-15.35351379 9.85554932 -15.10343567 9.12851807 -14.84577942 8.37945557 C-14.62696106 7.72638428 -14.4081427 7.07331299 -14.18269348 6.40045166 C-10.83945177 0.5801314 -6.22149344 -0.09640088 0 0 Z " fill="#FDFEFE" transform="translate(459.0801544189453,446.51898193359375)"/>
<path d="M0 0 C0.888013 -0.00043808 1.776026 -0.00087616 2.69094849 -0.00132751 C5.62923082 0.00076427 8.56694417 0.02411377 11.50512695 0.04760742 C13.54107857 0.05320199 15.57703423 0.05747274 17.61299133 0.06047058 C22.97412243 0.07193032 28.33501008 0.10140731 33.69604492 0.13458252 C39.16557522 0.16525903 44.63514482 0.17897075 50.10473633 0.1940918 C60.83856731 0.22627584 71.57221752 0.2774859 82.3059082 0.34057617 C81.68556286 5.02023058 80.85250051 9.04151453 79.1105957 13.43432617 C78.6489502 14.6115625 78.18730469 15.78879883 77.71166992 17.00170898 C77.20151493 18.28137082 76.69125815 19.56099208 76.1809082 20.84057617 C75.37765123 22.87783393 74.57698922 24.91610021 73.77639771 26.95440674 C73.20588704 28.40637233 72.63447516 29.8579841 72.06222534 31.30926514 C69.75203213 37.1754175 67.49057653 43.05939962 65.2434082 48.94995117 C64.90487823 49.83618164 64.56634827 50.72241211 64.21755981 51.63549805 C62.8710182 55.1608834 61.52462541 58.68631189 60.18377686 62.21386719 C59.24608289 64.67927929 58.30380745 67.14289579 57.3605957 69.60620117 C56.94100586 70.71508698 56.94100586 70.71508698 56.51293945 71.84637451 C55.32507022 74.93858088 54.1520759 77.57132463 52.3059082 80.34057617 C49.6003418 80.68115234 49.6003418 80.68115234 46.2043457 80.63354492 C44.99262695 80.62387695 43.7809082 80.61420898 42.5324707 80.60424805 C40.62594727 80.56654297 40.62594727 80.56654297 38.6809082 80.52807617 C37.4021582 80.51454102 36.1234082 80.50100586 34.8059082 80.48706055 C31.63882538 80.45160813 28.47257279 80.40219058 25.3059082 80.34057617 C25.87420084 74.38250812 27.63262186 69.39331468 29.8684082 63.86401367 C30.39543335 62.53160141 30.39543335 62.53160141 30.93310547 61.17227173 C32.05020633 58.35046329 33.17728614 55.53279419 34.3059082 52.71557617 C35.43332738 49.89077013 36.55847929 47.06512172 37.67871094 44.23745728 C38.37427763 42.48273041 39.07412847 40.72969407 39.77880859 38.97860718 C40.0958374 38.18072784 40.41286621 37.38284851 40.73950195 36.56079102 C41.01850342 35.86464691 41.29750488 35.16850281 41.58496094 34.45126343 C42.50770087 31.90087715 42.50770087 31.90087715 43.3059082 27.34057617 C22.8459082 27.34057617 2.3859082 27.34057617 -18.6940918 27.34057617 C-19.87988455 23.78319791 -19.44569642 22.97418431 -18.1472168 19.55932617 C-17.6212793 18.17293945 -17.6212793 18.17293945 -17.0847168 16.75854492 C-16.70831055 15.79561523 -16.3319043 14.83268555 -15.9440918 13.84057617 C-15.40268555 12.39618164 -15.40268555 12.39618164 -14.8503418 10.92260742 C-11.48209277 2.17248224 -9.70585503 -0.12460632 0 0 Z " fill="#FCFDFD" transform="translate(442.694091796875,487.659423828125)"/>
<path d="M0 0 C0.33 0 0.66 0 1 0 C3.37047418 12.84119597 4.43792869 25.15999185 4.38818359 38.20507812 C4.39226304 40.03910125 4.39761251 41.87312192 4.40411377 43.70713806 C4.41763019 48.62661618 4.41255452 53.54590265 4.40297651 58.46538353 C4.39529759 63.6520979 4.40244809 68.83879757 4.40713501 74.0255127 C4.41256887 82.73009133 4.40546358 91.43459322 4.39111328 100.13916016 C4.3747914 110.15430558 4.38008159 120.16926767 4.3965925 130.18440866 C4.41027533 138.8355637 4.41209403 147.48666406 4.40427649 156.13782644 C4.3996371 161.28186128 4.39887076 166.4258104 4.40888596 171.56983948 C4.41765313 176.40953063 4.41135893 181.24898905 4.39420319 186.08865547 C4.39028974 187.84804972 4.39128208 189.6074641 4.39799118 191.3668499 C4.44956031 206.28368371 2.76863384 220.55274628 -1 235 C-1.33 235 -1.66 235 -2 235 C-2.08267696 233.33421233 -2.13993159 231.66715964 -2.1875 230 C-2.22230469 229.071875 -2.25710938 228.14375 -2.29296875 227.1875 C-2 224 -2 224 -0.50465775 220.32034779 C1.15164727 216.01184451 1.41801686 212.26658081 1.36749268 207.68693542 C1.37076152 206.88904596 1.37403036 206.0911565 1.37739825 205.26908857 C1.38463674 202.61563637 1.37056201 199.96274402 1.35644531 197.30932617 C1.35723686 195.39811103 1.35933617 193.48689605 1.36264038 191.57568359 C1.36776533 186.39521761 1.35425175 181.21495103 1.33711338 176.03451705 C1.32202802 170.59416821 1.32325002 165.15382145 1.32244873 159.7134552 C1.31875753 150.56650414 1.3038065 141.41962817 1.28125 132.27270508 C1.25247844 120.5827371 1.24203403 108.89282986 1.2375679 97.20283031 C1.23356372 87.10445307 1.22105909 77.00608869 1.20722103 66.9077208 C1.20315007 63.6877961 1.20021009 60.46787183 1.19742584 57.24794579 C1.19247207 52.15320734 1.18216951 47.0585041 1.16798782 41.96378326 C1.16352683 40.10925681 1.16064121 38.25472568 1.15958023 36.40019417 C1.15107134 24.23555227 0.75011859 12.14184211 0 0 Z " fill="#4D63B7" transform="translate(743,424)"/>
<path d="M0 0 C0.80787751 -0.00256327 1.61575503 -0.00512655 2.44811368 -0.0077675 C5.15834008 -0.01271354 7.86801086 0.00380092 10.57818604 0.02018738 C12.51963793 0.02103347 14.46109078 0.02055885 16.40254211 0.01885986 C21.67701423 0.0179978 26.9512824 0.03565776 32.22570705 0.05658174 C37.73635771 0.07531336 43.24701285 0.0770962 48.75769043 0.08065796 C59.19468796 0.08998876 69.63159142 0.11461657 80.06854749 0.14470643 C91.94990035 0.17821822 103.83125766 0.19472835 115.71264601 0.20979273 C140.1551829 0.24116519 164.59763623 0.29394583 189.0401001 0.36076355 C189.0401001 0.69076355 189.0401001 1.02076355 189.0401001 1.36076355 C183.55355856 2.90962815 178.58047482 3.64777818 172.8649292 3.60127258 C171.69086368 3.60383586 171.69086368 3.60383586 170.49307966 3.60645092 C167.89212106 3.60972337 165.29142523 3.59877946 162.69049072 3.58781433 C160.81741339 3.58724973 158.94433562 3.58756773 157.07125854 3.58869934 C152.00160699 3.58927195 146.93205054 3.57753249 141.86242104 3.56355143 C136.55865591 3.55102876 131.25488847 3.54987235 125.95111084 3.54750061 C115.91447116 3.54129036 105.87787517 3.52488568 95.84125471 3.50480163 C84.41203037 3.48242849 72.98280392 3.47144564 61.55356312 3.46141076 C38.04905124 3.44051907 14.54457812 3.40535192 -8.9598999 3.36076355 C-9.63746873 4.91856687 -10.30149447 6.48226451 -10.9598999 8.04826355 C-11.3311499 8.91838074 -11.7023999 9.78849792 -12.0848999 10.6849823 C-12.98098871 13.42525387 -13.01401573 15.50584636 -12.9598999 18.36076355 C-14.71259159 20.473383 -16.71750696 21.72568537 -18.9598999 23.36076355 C-17.49655265 18.15036046 -15.912558 12.9960594 -14.0223999 7.92326355 C-13.72462646 7.12017761 -13.42685303 6.31709167 -13.12005615 5.4896698 C-10.1034758 -0.04580594 -5.79669545 -0.0671041 0 0 Z " fill="#BBCDF3" transform="translate(458.95989990234375,446.6392364501953)"/>
<path d="M0 0 C1.83260635 -0.00135715 3.66521243 -0.00313884 5.49781799 -0.00531006 C10.44583278 -0.00984578 15.39382657 -0.00811113 20.3418417 -0.00493097 C25.53154492 -0.00238889 30.72124641 -0.00474991 35.91094971 -0.00631714 C44.6195101 -0.00813279 53.32806199 -0.00574769 62.03662109 -0.00097656 C72.09722566 0.00447173 82.15780998 0.00269685 92.21841407 -0.00280297 C100.8709047 -0.00734314 109.52338924 -0.00798041 118.17588067 -0.0053643 C123.33751015 -0.00380739 128.49913011 -0.00359185 133.66075897 -0.00690079 C138.5100798 -0.00979286 143.35937453 -0.00777921 148.20869255 -0.00200653 C149.98602442 -0.00068641 151.76335849 -0.00106035 153.54068947 -0.0032692 C155.97025068 -0.00600992 158.39972873 -0.00256399 160.82928467 0.00241089 C161.87885585 -0.00093519 161.87885585 -0.00093519 162.9496305 -0.00434887 C167.30570613 0.01290049 171.41031933 0.42834716 175.69628906 1.12939453 C175.69628906 1.45939453 175.69628906 1.78939453 175.69628906 2.12939453 C174.67291695 2.13270468 173.64954483 2.13601482 172.59516144 2.13942528 C147.69022545 2.22043202 122.78535096 2.31275147 97.88050079 2.41692162 C85.83668792 2.46703588 73.79288181 2.513479 61.74902344 2.55126953 C51.25117469 2.58421841 40.75337863 2.62406573 30.25558805 2.67218459 C24.69749908 2.69742069 19.13944492 2.71921058 13.58131409 2.73273849 C8.3479606 2.74558496 3.11472672 2.76766742 -2.11856079 2.79677773 C-4.03735561 2.80583326 -5.95616967 2.811539 -7.87498474 2.81360817 C-10.49975864 2.81694501 -13.12419639 2.83246079 -15.74890137 2.85092163 C-16.50378829 2.8489869 -17.25867522 2.84705216 -18.03643751 2.8450588 C-23.08920004 2.89799307 -27.43032376 3.79145586 -32.30371094 5.12939453 C-35.02433062 5.33931889 -37.56766794 5.22711035 -40.30371094 5.12939453 C-40.30371094 4.46939453 -40.30371094 3.80939453 -40.30371094 3.12939453 C-38.70088877 2.81007019 -37.09633304 2.49944939 -35.49121094 2.19189453 C-34.15123047 1.93085938 -34.15123047 1.93085938 -32.78417969 1.66455078 C-21.87954111 -0.01214449 -11.00280035 -0.01374247 0 0 Z " fill="#4761B8" transform="translate(458.3037109375,323.87060546875)"/>
<path d="M0 0 C1.59316593 5.46228318 0.580039 10.0242105 -2 15 C-1.67 15.66 -1.34 16.32 -1 17 C-1.66 17 -2.32 17 -3 17 C-3 17.66 -3 18.32 -3 19 C-3.66 19 -4.32 19 -5 19 C-5.66 20.65 -6.32 22.3 -7 24 C-73.33 24 -139.66 24 -208 24 C-208 23.67 -208 23.34 -208 23 C-206.98232638 22.99761165 -205.96465277 22.99522329 -204.91614056 22.99276257 C-180.17984306 22.9340273 -155.44364344 22.85818169 -130.70745373 22.76428509 C-118.7453264 22.71927596 -106.78322919 22.67987317 -94.82104492 22.65356445 C-84.39757012 22.63062575 -73.97419021 22.59727418 -63.55079061 22.55129844 C-58.02917359 22.52731042 -52.50765088 22.50861827 -46.98598289 22.50238609 C-41.79281466 22.49636041 -36.59988789 22.47645223 -31.40680885 22.44572449 C-29.49720559 22.43690374 -27.58757082 22.43322997 -25.677948 22.43499184 C-23.07755265 22.43663405 -20.47790272 22.42003621 -17.87760925 22.39872742 C-16.7351054 22.40599878 -16.7351054 22.40599878 -15.56952065 22.41341704 C-11.56069025 22.37895158 -11.56069025 22.37895158 -8.06909657 20.60537434 C-6.76620107 18.64892339 -5.96407397 16.76692494 -5.17578125 14.55078125 C-4.86962891 13.70322266 -4.56347656 12.85566406 -4.24804688 11.98242188 C-3.93931641 11.10134766 -3.63058594 10.22027344 -3.3125 9.3125 C-2.99216797 8.41982422 -2.67183594 7.52714844 -2.34179688 6.60742188 C-1.55360039 4.40753019 -0.77334105 2.20514854 0 0 Z " fill="#173795" transform="translate(648,451)"/>
<path d="M0 0 C0.99 1.485 0.99 1.485 2 3 C1.2421875 5.8125 1.2421875 5.8125 -0.125 9 C-0.77855469 10.5778125 -0.77855469 10.5778125 -1.4453125 12.1875 C-3.17180344 15.31080019 -3.87122733 16.33088083 -7 18 C-10.30256746 18.43696947 -13.58247037 18.37839594 -16.90917969 18.34057617 C-17.91438156 18.34101425 -18.91958344 18.34145233 -19.95524597 18.34190369 C-23.27765325 18.33981373 -26.59955587 18.31647242 -29.921875 18.29296875 C-32.22544072 18.28737354 -34.52901 18.28310309 -36.83258057 18.28010559 C-42.8956691 18.26865095 -48.95854205 18.23917818 -55.02154541 18.20599365 C-61.20834436 18.17530627 -67.39517813 18.16160309 -73.58203125 18.14648438 C-85.72144889 18.11430929 -97.86070652 18.06310525 -110 18 C-106.9205159 15.9470106 -106.31265368 15.75078381 -102.84284973 15.75949097 C-101.57454063 15.75536697 -101.57454063 15.75536697 -100.28060913 15.75115967 C-99.35632111 15.75835022 -98.43203308 15.76554077 -97.47973633 15.77294922 C-96.50394119 15.77265717 -95.52814606 15.77236511 -94.52278137 15.77206421 C-91.29244136 15.77345928 -88.06233105 15.78902892 -84.83203125 15.8046875 C-82.59429551 15.808417 -80.35655814 15.81126427 -78.11882019 15.81326294 C-72.22510277 15.82090436 -66.3314837 15.84055728 -60.43780518 15.8626709 C-54.42534719 15.88311834 -48.41287334 15.8922623 -42.40039062 15.90234375 C-30.60021717 15.92380264 -18.80011676 15.95794477 -7 16 C-6.67 14.68 -6.34 13.36 -6 12 C-5.34 12 -4.68 12 -4 12 C-4.495 10.515 -4.495 10.515 -5 9 C-4.01 9 -3.02 9 -2 9 C-1.855625 7.88625 -1.71125 6.7725 -1.5625 5.625 C-1 2 -1 2 0 0 Z " fill="#173893" transform="translate(569,577)"/>
<path d="M0 0 C1.1910597 -0.00679826 1.1910597 -0.00679826 2.40618122 -0.01373386 C3.1242822 -0.01919208 3.84238319 -0.0246503 4.58224481 -0.03027391 C7.31433886 0.03753844 9.93020924 0.47157177 12.60325515 1.01988888 C12.60325515 1.67988888 12.60325515 2.33988888 12.60325515 3.01988888 C11.1242594 3.01850619 11.1242594 3.01850619 9.61538494 3.01709557 C-14.42405423 2.99485331 -38.46349205 2.97844288 -62.50293934 2.96807671 C-74.12843358 2.96292991 -85.753921 2.95591812 -97.37941086 2.94444942 C-107.517282 2.93445309 -117.6551482 2.9280237 -127.79302412 2.92580038 C-133.15628396 2.92450166 -138.51952967 2.9214692 -143.88278496 2.91415882 C-148.94127838 2.90732037 -153.99975199 2.90528769 -159.05824959 2.9067812 C-160.90477843 2.90650836 -162.75130799 2.90455001 -164.5978328 2.9006834 C-175.24625694 2.87949845 -185.7808298 3.14143082 -196.39674485 4.01988888 C-196.06674485 3.02988888 -195.73674485 2.03988888 -195.39674485 1.01988888 C-170.38810763 0.8892206 -145.37946902 0.75882009 -120.37082875 0.62873745 C-108.75861717 0.56833021 -97.14640606 0.50783569 -85.53419602 0.44713497 C-75.41176547 0.39422202 -65.28933408 0.34147359 -55.16690165 0.28892183 C-49.80830995 0.26109637 -44.44971871 0.23318913 -39.09112847 0.2050848 C-34.04415087 0.1786174 -28.99717218 0.1523705 -23.95019257 0.12629032 C-22.10114416 0.11669696 -20.25209617 0.1070241 -18.40304863 0.09726429 C-15.87072078 0.08391003 -13.33839159 0.07084684 -10.80606186 0.05785275 C-9.71895569 0.05201632 -9.71895569 0.05201632 -8.60988778 0.04606199 C-7.23650867 0.03913078 -5.86312401 0.03321179 -4.48973584 0.02840233 C-2.99313966 0.02231477 -1.49655703 0.01241886 0 0 Z " fill="#EFFDFE" transform="translate(621.3967448472977,321.98011112213135)"/>
<path d="M0 0 C0.66 0.66 1.32 1.32 2 2 C1.78794922 2.56509277 1.57589844 3.13018555 1.35742188 3.71240234 C0.40157509 6.26535358 -0.54926887 8.82013951 -1.5 11.375 C-1.83386719 12.26445312 -2.16773438 13.15390625 -2.51171875 14.0703125 C-2.82753906 14.92109375 -3.14335937 15.771875 -3.46875 16.6484375 C-3.90864258 17.82672119 -3.90864258 17.82672119 -4.35742188 19.02880859 C-5.10331089 20.97137234 -5.10331089 20.97137234 -5 23 C15.46 23.33 35.92 23.66 57 24 C56 31 56 31 54 34 C54.33 31.36 54.66 28.72 55 26 C53.90125801 26.02545395 53.90125801 26.02545395 52.78031921 26.05142212 C45.87957826 26.20946482 38.97868866 26.35765981 32.07750225 26.49477577 C28.52946885 26.56561774 24.98160106 26.64027487 21.43383789 26.72363281 C17.35581382 26.81928284 13.27761518 26.89837051 9.19921875 26.9765625 C7.92414963 27.00875885 6.64908051 27.0409552 5.33537292 27.0741272 C4.15437515 27.09429901 2.97337738 27.11447083 1.7565918 27.13525391 C0.71512497 27.15746002 -0.32634186 27.17966614 -1.39936829 27.20254517 C-4 27 -4 27 -7 25 C-7.28527337 21.14880946 -7.18082522 17.69007882 -6 14 C-5.34 14 -4.68 14 -4 14 C-4.0825 13.175 -4.165 12.35 -4.25 11.5 C-3.92764011 6.98696153 -2.20705349 3.88204944 0 0 Z " fill="#1B3894" transform="translate(429,491)"/>
<path d="M0 0 C2.18985955 7.27852599 -2.32658665 14.31646663 -5 21 C15.46 21 35.92 21 57 21 C56.34 21.99 55.68 22.98 55 24 C52.4057312 24.32279968 52.4057312 24.32279968 49.08154297 24.2487793 C47.84040741 24.22853195 46.59927185 24.20828461 45.32052612 24.18742371 C43.961071 24.15001116 42.60162494 24.11226835 41.2421875 24.07421875 C39.85501669 24.04619048 38.46781826 24.01949955 37.08059692 23.99409485 C33.4272879 23.92358596 29.77463714 23.8348776 26.12182617 23.74243164 C22.39524634 23.65132217 18.66833125 23.57734915 14.94140625 23.50195312 C7.62716661 23.3514487 0.3135376 23.18172501 -7 23 C-6.5054475 19.11129883 -6.01200055 15.47770353 -4.58984375 11.81640625 C-4.32236328 11.11708984 -4.05488281 10.41777344 -3.77929688 9.69726562 C-3.36260742 8.64055664 -3.36260742 8.64055664 -2.9375 7.5625 C-2.65583984 6.83095703 -2.37417969 6.09941406 -2.08398438 5.34570312 C-1.39586753 3.56126454 -0.69885394 1.78026095 0 0 Z " fill="#1A3797" transform="translate(557,518)"/>
<path d="M0 0 C0.99 0.66 1.98 1.32 3 2 C3 2.99 3 3.98 3 5 C2.01 5.99 1.02 6.98 0 8 C43.89 7.67 87.78 7.34 133 7 C133.66 5.35 134.32 3.7 135 2 C135.66 1.67 136.32 1.34 137 1 C135.375 6.75 135.375 6.75 132 9 C129.55374622 9.24609566 129.55374622 9.24609566 126.59004211 9.24050903 C124.90523239 9.24463303 124.90523239 9.24463303 123.18638611 9.24884033 C121.33709251 9.2380545 121.33709251 9.2380545 119.45043945 9.22705078 C118.15277649 9.22734283 116.85511353 9.22763489 115.51812744 9.22793579 C111.95844603 9.22851028 108.39889904 9.21674046 104.8392489 9.20278788 C101.1196614 9.19029654 97.40007093 9.18911128 93.6804657 9.18673706 C86.63629995 9.18051759 79.59219618 9.16410047 72.54805773 9.14403808 C64.52880242 9.1216936 56.50954417 9.11068931 48.49026549 9.10064721 C31.99347403 9.07973463 15.49674492 9.0445496 -1 9 C-2.25541557 5.23375329 -1.37061958 3.62811066 0 0 Z " fill="#EFFAFE" transform="translate(449,613)"/>
<path d="M0 0 C0.66 0 1.32 0 2 0 C-0.15114458 7.84891983 -3.02814165 15.29347071 -6.125 22.8125 C-7.02750312 25.00484116 -7.92609781 27.19879635 -8.8203125 29.39453125 C-9.21492676 30.35206299 -9.60954102 31.30959473 -10.01611328 32.29614258 C-11.19655182 35.32836955 -11.19655182 35.32836955 -12 40 C17.205 40.495 17.205 40.495 47 41 C47 41.33 47 41.66 47 42 C46.43481155 42.00808685 45.86962311 42.01617371 45.28730774 42.02450562 C39.3984244 42.1106431 33.5098741 42.21015072 27.62133789 42.31738281 C25.42445474 42.3556374 23.2275097 42.3904964 21.03051758 42.421875 C17.87038068 42.4676016 14.7106685 42.52558418 11.55078125 42.5859375 C10.57039383 42.59748871 9.59000641 42.60903992 8.57991028 42.62094116 C2.07210274 42.75926044 2.07210274 42.75926044 -4 45 C-4 44.34 -4 43.68 -4 43 C-6.97 43 -9.94 43 -13 43 C-14.78424471 37.46884139 -13.39200134 31.95866445 -10.97265625 26.81640625 C-10.25967734 25.47417905 -9.5424627 24.13419018 -8.8203125 22.796875 C-7.75518239 20.46373286 -7.68413661 18.52690713 -8 16 C-7.01 16 -6.02 16 -5 16 C-4.89042969 15.34773437 -4.78085937 14.69546875 -4.66796875 14.0234375 C-3.73491038 8.8802377 -2.65215917 4.58100221 0 0 Z " fill="#1438A3" transform="translate(523,528)"/>
<path d="M0 0 C0.33 0 0.66 0 1 0 C1 1.65 1 3.3 1 5 C0.34 5 -0.32 5 -1 5 C-1 5.66 -1 6.32 -1 7 C-3.28837952 8.14418976 -4.56690299 8.12936149 -7.1104126 8.13803101 C-7.97114883 8.14348434 -8.83188507 8.14893768 -9.71870422 8.15455627 C-11.13846809 8.15611977 -11.13846809 8.15611977 -12.58691406 8.15771484 C-14.07982216 8.16533592 -14.07982216 8.16533592 -15.60289001 8.17311096 C-17.76966718 8.18383041 -19.93645554 8.19244438 -22.1032486 8.19923019 C-25.53281991 8.21099649 -28.96226401 8.23044421 -32.39178467 8.25234985 C-42.14477301 8.31403753 -51.89774937 8.36800194 -61.65087891 8.40136719 C-67.61199538 8.42231169 -73.57288182 8.45761634 -79.53386688 8.50212479 C-81.80640708 8.51628985 -84.078988 8.52500836 -86.35157013 8.52817917 C-89.53312741 8.53308732 -92.71407449 8.55624452 -95.89550781 8.58349609 C-96.83392014 8.58048996 -97.77233246 8.57748383 -98.73918152 8.5743866 C-103.92698736 8.64038114 -107.46799321 9.17959804 -112 12 C-110.25 8.125 -110.25 8.125 -108 7 C-106.62795692 6.90511345 -105.25144743 6.87099594 -103.87612915 6.86869812 C-103.01250259 6.86468994 -102.14887604 6.86068176 -101.25907898 6.85655212 C-99.83460197 6.8573452 -99.83460197 6.8573452 -98.38134766 6.8581543 C-97.38286301 6.85467987 -96.38437836 6.85120544 -95.3556366 6.84762573 C-93.18230372 6.84026119 -91.00896328 6.83491954 -88.83562088 6.83133507 C-85.39819437 6.82418575 -81.96091195 6.80853121 -78.52352905 6.78999329 C-68.74845339 6.73744746 -58.97345608 6.68952435 -49.19824219 6.67407227 C-43.22411978 6.66400802 -37.25035855 6.63472288 -31.27637863 6.59275246 C-28.99660342 6.58041524 -26.71677726 6.57532613 -24.43696976 6.57755089 C-21.25006625 6.57989573 -18.06420446 6.55779891 -14.87744141 6.5300293 C-13.93183853 6.53663071 -12.98623566 6.54323212 -12.01197815 6.55003357 C-6.85857482 6.52765978 -6.85857482 6.52765978 -2.44515991 4.09187317 C-0.97767971 2.07239417 -0.97767971 2.07239417 0 0 Z " fill="#E9FBFE" transform="translate(567,588)"/>
<path d="M0 0 C-0.33 0.66 -0.66 1.32 -1 2 C-22.12 2 -43.24 2 -65 2 C-64.67 1.34 -64.34 0.68 -64 0 C-56.09850527 -0.15383348 -48.19693346 -0.30201448 -40.29519939 -0.4429636 C-36.62618389 -0.50858858 -32.95722593 -0.57616621 -29.28833008 -0.64819336 C-25.74820418 -0.71762088 -22.20801906 -0.78193612 -18.66773415 -0.84269524 C-16.6585244 -0.87851748 -14.64941153 -0.91964503 -12.64030457 -0.96083069 C-11.41926529 -0.98092697 -10.19822601 -1.00102325 -8.94018555 -1.02172852 C-7.32469063 -1.05170677 -7.32469063 -1.05170677 -5.67655945 -1.08229065 C-3 -1 -3 -1 0 0 Z " fill="#1B3898" transform="translate(624,515)"/>
<path d="M0 0 C0.33 0 0.66 0 1 0 C1 2.64 1 5.28 1 8 C0.34 8 -0.32 8 -1 8 C-1.99 13.28 -2.98 18.56 -4 24 C-4.66 24 -5.32 24 -6 24 C-5.67 24.99 -5.34 25.98 -5 27 C-7 30 -7 30 -9 31 C-9.68472665 32.88764903 -9.68472665 32.88764903 -10.125 35.0625 C-10.29257812 35.79597656 -10.46015625 36.52945313 -10.6328125 37.28515625 C-10.75398438 37.85105469 -10.87515625 38.41695312 -11 39 C-11.66 39 -12.32 39 -13 39 C-13.33 41.31 -13.66 43.62 -14 46 C-14.99 46 -15.98 46 -17 46 C-14.72320888 39.01010624 -12.22179246 32.12684247 -9.625 25.25 C-9.22869385 24.19683594 -8.8323877 23.14367187 -8.42407227 22.05859375 C-5.64892356 14.69301191 -2.85146163 7.33642389 0 0 Z " fill="#1138A9" transform="translate(516,513)"/>
<path d="M0 0 C31.35 0 62.7 0 95 0 C95 0.33 95 0.66 95 1 C93.86882751 1.00364563 92.73765503 1.00729126 91.57220459 1.01104736 C80.91878914 1.04796755 70.26566354 1.10570759 59.61246872 1.18390274 C54.13535096 1.22343408 48.65839533 1.25559482 43.18115234 1.27099609 C37.89657754 1.28612538 32.61244832 1.3205046 27.32807159 1.36830902 C25.31067017 1.38316134 23.29320513 1.39104321 21.27574921 1.39188385 C18.45255364 1.39424368 15.6305994 1.42124362 12.80761719 1.45410156 C11.97108109 1.4490712 11.13454498 1.44404083 10.2726593 1.43885803 C6.50690004 1.50679528 4.44325611 1.64648344 1.44952393 4.03411865 C0.97118103 4.6828595 0.49283813 5.33160034 0 6 C0 4.02 0 2.04 0 0 Z " fill="#173A93" transform="translate(538,487)"/>
<path d="M0 0 C0.66 0 1.32 0 2 0 C-0.14279164 7.80221173 -2.98821715 15.20987752 -6.0625 22.6875 C-9.9920068 32.18666419 -9.9920068 32.18666419 -13 42 C-14.65023057 36.72875991 -13.28273434 31.73129744 -10.97265625 26.8125 C-10.25916405 25.47184561 -9.54191734 24.13318026 -8.8203125 22.796875 C-7.75518239 20.46373286 -7.68413661 18.52690713 -8 16 C-7.01 16 -6.02 16 -5 16 C-4.89042969 15.34773437 -4.78085937 14.69546875 -4.66796875 14.0234375 C-3.73491038 8.8802377 -2.65215917 4.58100221 0 0 Z " fill="#213F9D" transform="translate(523,528)"/>
<path d="M0 0 C1.65 0 3.3 0 5 0 C5 1.32 5 2.64 5 4 C4.01 4 3.02 4 2 4 C2.66 6.31 3.32 8.62 4 11 C1 13 1 13 -2 13 C-2.10957031 13.56589844 -2.21914063 14.13179688 -2.33203125 14.71484375 C-2.49058594 15.44832031 -2.64914062 16.18179687 -2.8125 16.9375 C-2.96332031 17.66839844 -3.11414063 18.39929688 -3.26953125 19.15234375 C-3.51058594 19.76207031 -3.75164063 20.37179687 -4 21 C-4.99 21.33 -5.98 21.66 -7 22 C-4.84071065 14.60606981 -2.4695482 7.29582259 0 0 Z " fill="#1236AE" transform="translate(525,488)"/>
<path d="M0 0 C1.59316593 5.46228318 0.580039 10.0242105 -2 15 C-1.67 15.66 -1.34 16.32 -1 17 C-1.66 17 -2.32 17 -3 17 C-3 17.66 -3 18.32 -3 19 C-3.66 19 -4.32 19 -5 19 C-5.99 21.475 -5.99 21.475 -7 24 C-12.61 24 -18.22 24 -24 24 C-24 23.67 -24 23.34 -24 23 C-23.02417969 22.96261719 -22.04835938 22.92523438 -21.04296875 22.88671875 C-19.13451172 22.78810547 -19.13451172 22.78810547 -17.1875 22.6875 C-15.29064453 22.60048828 -15.29064453 22.60048828 -13.35546875 22.51171875 C-9.73802211 21.96004761 -9.18617357 21.71827423 -7 19 C-5.96717582 16.89890762 -5.96717582 16.89890762 -5.17578125 14.55078125 C-4.86962891 13.70322266 -4.56347656 12.85566406 -4.24804688 11.98242188 C-3.78495117 10.66081055 -3.78495117 10.66081055 -3.3125 9.3125 C-2.99216797 8.41982422 -2.67183594 7.52714844 -2.34179688 6.60742188 C-1.55360039 4.40753019 -0.77334105 2.20514854 0 0 Z " fill="#1F3C9B" transform="translate(648,451)"/>
<path d="M0 0 C0.66 1.32 1.32 2.64 2 4 C21.47 4 40.94 4 61 4 C61 4.66 61 5.32 61 6 C40.87 6 20.74 6 0 6 C-1 3 -1 3 0 0 Z " fill="#E9F8FD" transform="translate(424,509)"/>
<path d="M0 0 C0.66 0.66 1.32 1.32 2 2 C2.66 2 3.32 2 4 2 C4 2.66 4 3.32 4 4 C3.41734375 4.50015625 2.8346875 5.0003125 2.234375 5.515625 C-1.01326448 9.12663673 -2.18572704 13.20488071 -3.75 17.75 C-4.22373047 19.08224609 -4.22373047 19.08224609 -4.70703125 20.44140625 C-5.48158186 22.62423069 -6.24546465 24.81019337 -7 27 C-8.18135138 23.05477201 -7.55748719 21.00753426 -6.125 17.125 C-4.64294994 13.07268131 -3.60016238 9.27775312 -3 5 C-3.66 5 -4.32 5 -5 5 C-5 3.68 -5 2.36 -5 1 C-3 0 -3 0 0 0 Z " fill="#2040A5" transform="translate(455,592)"/>
<path d="M0 0 C0.99 0.495 0.99 0.495 2 1 C2.52734375 3.328125 2.52734375 3.328125 2.9375 6.25 C3.63907243 10.57636331 4.68629608 13.27795456 7 17 C7.53520052 19.67600259 7.7689028 22.27305305 8 25 C7.34 25 6.68 25 6 25 C-0.40437393 8.08747856 -0.40437393 8.08747856 0 0 Z " fill="#1F3C9E" transform="translate(323,644)"/>
<path d="M0 0 C0.94940801 3.3467397 0.93132105 4.9724431 -0.3125 8.25 C-1.83519045 12.46184561 -2.97001041 16.64235173 -4 21 C-4.66 21 -5.32 21 -6 21 C-6.33 23.31 -6.66 25.62 -7 28 C-7.99 28 -8.98 28 -10 28 C-7.91037654 21.59162763 -5.6602938 15.25546703 -3.3125 8.9375 C-2.99216797 8.07189453 -2.67183594 7.20628906 -2.34179688 6.31445312 C-1.56248716 4.20915373 -0.78187196 2.10434886 0 0 Z " fill="#2B45A6" transform="translate(509,531)"/>
<path d="M0 0 C1.2065625 0.0309375 1.2065625 0.0309375 2.4375 0.0625 C1.93237476 6.29237798 -0.88854123 11.51724233 -3.5625 17.0625 C-5.08981594 14.00786813 -4.05478742 11.39911472 -3.5625 8.0625 C-3.5625 6.78375 -3.5625 5.505 -3.5625 4.1875 C-3.5625 0.08689024 -3.5625 0.08689024 0 0 Z " fill="#F6FAF8" transform="translate(646.5625,447.9375)"/>
<path d="M0 0 C0.66 0.33 1.32 0.66 2 1 C-1.3 9.58 -4.6 18.16 -8 27 C-8.66 27 -9.32 27 -10 27 C-10.1875 24.125 -10.1875 24.125 -10 21 C-9.01 20.34 -8.02 19.68 -7 19 C-6.055477 16.75885321 -6.055477 16.75885321 -5.4375 14.1875 C-4.05614722 9.18729072 -2.39056237 4.61037029 0 0 Z " fill="#2845A1" transform="translate(534,500)"/>
<path d="M0 0 C0.66 0.33 1.32 0.66 2 1 C1.72285156 1.56847656 1.44570313 2.13695312 1.16015625 2.72265625 C-0.62796621 6.5343479 -1.95162191 9.51621911 -2.375 13.75 C-3.2568965 18.33586182 -5.25019636 19.36715914 -9 22 C-3.92307692 3.92307692 -3.92307692 3.92307692 0 0 Z " fill="#E2F0FA" transform="translate(449,448)"/>
<path d="M0 0 C2.69254991 0.70670728 2.69254991 0.70670728 5 1 C5 1.66 5 2.32 5 3 C-3.33333333 1.33333333 -11.66666667 -0.33333333 -20 -2 C-20 -2.33 -20 -2.66 -20 -3 C-12.33690014 -4.20996314 -6.74978698 -4.26302336 0 0 Z " fill="#DAE8F9" transform="translate(657,328)"/>
<path d="M0 0 C0.66 0 1.32 0 2 0 C1.67 3.63 1.34 7.26 1 11 C0.34 11 -0.32 11 -1 11 C-1 11.66 -1 12.32 -1 13 C-1.66 13 -2.32 13 -3 13 C-3.33 14.98 -3.66 16.96 -4 19 C-4.99 19.33 -5.98 19.66 -7 20 C-4.80962826 13.27954125 -2.44234339 6.63275997 0 0 Z " fill="#2741A7" transform="translate(613,542)"/>
<path d="M0 0 C0.66 0.33 1.32 0.66 2 1 C-0.02392461 7.27444779 -2.26976993 13.42984439 -4.6875 19.5625 C-5.00783203 20.38041016 -5.32816406 21.19832031 -5.65820312 22.04101562 C-6.43678254 24.02813622 -7.21809845 26.01418427 -8 28 C-9.14879111 24.35825404 -8.60388728 22.79204266 -6.96875 19.34765625 C-4.80207452 14.09696284 -3.49509873 8.47190956 -2 3 C-1.34 3 -0.68 3 0 3 C0 2.01 0 1.02 0 0 Z " fill="#24429B" transform="translate(481,525)"/>
<path d="M0 0 C0.66 0.99 1.32 1.98 2 3 C1.2421875 5.8125 1.2421875 5.8125 -0.125 9 C-0.56070313 10.051875 -0.99640625 11.10375 -1.4453125 12.1875 C-3.01521676 15.02752781 -4.27209 16.31408137 -7 18 C-8.32 17.34 -9.64 16.68 -11 16 C-9.68 16 -8.36 16 -7 16 C-6.67 14.68 -6.34 13.36 -6 12 C-5.34 12 -4.68 12 -4 12 C-4.33 11.01 -4.66 10.02 -5 9 C-4.01 9 -3.02 9 -2 9 C-1.855625 7.88625 -1.71125 6.7725 -1.5625 5.625 C-1 2 -1 2 0 0 Z " fill="#1F3FA4" transform="translate(569,577)"/>
<path d="M0 0 C2.64 0 5.28 0 8 0 C4.0826156 3.42771135 -1.52151811 8 -7 8 C-7 7.01 -7 6.02 -7 5 C-4.46815512 2.64276511 -3.52809907 2 0 2 C0 1.34 0 0.68 0 0 Z " fill="#1E3EA0" transform="translate(680,730)"/>
<path d="M0 0 C1.56393356 3.97376829 0.36145292 6.81377903 -0.9375 10.75 C-1.31777344 11.92046875 -1.69804688 13.0909375 -2.08984375 14.296875 C-2.39019531 15.18890625 -2.69054687 16.0809375 -3 17 C-3.66 17 -4.32 17 -5 17 C-5 18.65 -5 20.3 -5 22 C-6.32 21.67 -7.64 21.34 -9 21 C-8.57074219 20.34644531 -8.14148438 19.69289063 -7.69921875 19.01953125 C-5.64063867 15.36141079 -4.23792947 11.62590884 -2.8125 7.6875 C-2.40354492 6.57665039 -2.40354492 6.57665039 -1.98632812 5.44335938 C-1.31968797 3.63056598 -0.65921459 1.81550684 0 0 Z " fill="#23409A" transform="translate(591,600)"/>
<path d="M0 0 C1.1875 1.6875 1.1875 1.6875 2 4 C0.8125 6.6875 0.8125 6.6875 -1 9 C-4.17787541 10.0592918 -6.42588943 10.11458939 -9.76171875 10.09765625 C-10.87998047 10.09443359 -11.99824219 10.09121094 -13.15039062 10.08789062 C-14.31763672 10.07951172 -15.48488281 10.07113281 -16.6875 10.0625 C-17.86634766 10.05798828 -19.04519531 10.05347656 -20.25976562 10.04882812 C-23.17322789 10.03703273 -26.08658863 10.0205727 -29 10 C-29 9.67 -29 9.34 -29 9 C-28.2886792 8.98541748 -27.5773584 8.97083496 -26.84448242 8.95581055 C-23.62493668 8.88138994 -20.40643482 8.78471 -17.1875 8.6875 C-16.06794922 8.66494141 -14.94839844 8.64238281 -13.79492188 8.61914062 C-12.72177734 8.58369141 -11.64863281 8.54824219 -10.54296875 8.51171875 C-9.55321045 8.48553467 -8.56345215 8.45935059 -7.54370117 8.43237305 C-4.62350468 7.93600411 -3.75429924 7.33755402 -2 5 C-0.80972016 2.40084462 -0.80972016 2.40084462 0 0 Z " fill="#1C39A1" transform="translate(498,560)"/>
<path d="M0 0 C0.66 0.66 1.32 1.32 2 2 C1.78794922 2.55985596 1.57589844 3.11971191 1.35742188 3.6965332 C0.39985367 6.23329974 -0.55014699 8.77283511 -1.5 11.3125 C-1.83386719 12.19357422 -2.16773438 13.07464844 -2.51171875 13.98242188 C-2.82753906 14.82998047 -3.14335937 15.67753906 -3.46875 16.55078125 C-3.76201172 17.33106689 -4.05527344 18.11135254 -4.35742188 18.9152832 C-5.14727883 21.11423319 -5.14727883 21.11423319 -5 24 C-5.66 24 -6.32 24 -7 24 C-6.67 20.7 -6.34 17.4 -6 14 C-5.34 14 -4.68 14 -4 14 C-4.0825 13.175 -4.165 12.35 -4.25 11.5 C-3.92764011 6.98696153 -2.20705349 3.88204944 0 0 Z " fill="#233F9B" transform="translate(429,491)"/>
<path d="M0 0 C0.33 0.66 0.66 1.32 1 2 C-0.328125 4.93359375 -0.328125 4.93359375 -2.25 8.4375 C-2.87390625 9.59121094 -3.4978125 10.74492187 -4.140625 11.93359375 C-5.66148019 14.44172679 -6.91220788 16.034335 -9 18 C-9.77062024 19.20361088 -10.50148077 20.43374072 -11.1875 21.6875 C-11.785625 22.780625 -12.38375 23.87375 -13 25 C-13.33 24.34 -13.66 23.68 -14 23 C-10.35779719 14.75711996 -5.35779767 7.21429899 0 0 Z " fill="#2C4599" transform="translate(346,374)"/>
<path d="M0 0 C5.03163018 4.29785078 10.02718443 8.63425542 15 13 C14.01 13.33 13.02 13.66 12 14 C11.4225 13.360625 10.845 12.72125 10.25 12.0625 C8.01937599 10.01776132 6.92563609 9.41794801 4 9 C4 8.34 4 7.68 4 7 C3.34 7 2.68 7 2 7 C1.34 4.69 0.68 2.38 0 0 Z " fill="#E5F1FB" transform="translate(353,709)"/>
<path d="M0 0 C0.66 0.66 1.32 1.32 2 2 C-2.455 13.88 -2.455 13.88 -7 26 C-7.66 26 -8.32 26 -9 26 C-9 24.35 -9 22.7 -9 21 C-8.01 20.67 -7.02 20.34 -6 20 C-5.896875 19.01 -5.79375 18.02 -5.6875 17 C-5.08333505 12.73632165 -3.62644561 8.96653572 -2 5 C-1.608125 4.01 -1.21625 3.02 -0.8125 2 C-0.544375 1.34 -0.27625 0.68 0 0 Z " fill="#DDEBFC" transform="translate(597,579)"/>
<path d="M0 0 C0.66 1.32 1.32 2.64 2 4 C-0.94802633 7.71232945 -3.95715225 11.36548742 -7 15 C-7.99 14.34 -8.98 13.68 -10 13 C-9.52949219 12.39671875 -9.05898438 11.7934375 -8.57421875 11.171875 C-7.64029297 9.97304688 -7.64029297 9.97304688 -6.6875 8.75 C-6.07261719 7.96109375 -5.45773437 7.1721875 -4.82421875 6.359375 C-3.19620982 4.2537703 -1.59064137 2.13390657 0 0 Z " fill="#E2F0FA" transform="translate(727,691)"/>
<path d="M0 0 C0.33 0 0.66 0 1 0 C1.79836516 10.06827169 -0.61165509 19.30801108 -3 29 C-3.33 29 -3.66 29 -4 29 C-4.30861857 22.78190725 -4.25733573 17.78285842 -1.734375 12.05859375 C-0.35288666 8.1860174 -0.2423905 4.07884708 0 0 Z " fill="#2845A0" transform="translate(745,630)"/>
<path d="M0 0 C3.68000434 2.75839204 6.49505889 5.62075382 9.3125 9.25 C10.00988281 10.14203125 10.70726562 11.0340625 11.42578125 11.953125 C11.94527344 12.62859375 12.46476563 13.3040625 13 14 C12.01 14.495 12.01 14.495 11 15 C6.33166636 12.96508534 5.10504946 10.48467059 3 6 C0.93832739 3.68581709 0.93832739 3.68581709 -1 2 C-0.67 1.34 -0.34 0.68 0 0 Z " fill="#2640A1" transform="translate(709,361)"/>
<path d="M0 0 C2.64465038 3.1254959 3.84414715 6.08788267 5 10 C5.99 10 6.98 10 8 10 C8.66 12.64 9.32 15.28 10 18 C9.34 18.33 8.68 18.66 8 19 C6.86788566 17.129287 5.74461905 15.25321809 4.625 13.375 C3.99851562 12.33085938 3.37203125 11.28671875 2.7265625 10.2109375 C1.09548847 7.17758264 -0.02076833 4.29377924 -1 1 C-0.67 0.67 -0.34 0.34 0 0 Z " fill="#25429F" transform="translate(332,673)"/>
<path d="M0 0 C5.7266425 2.9826263 10.26638344 6.62294157 15 11 C13.109375 11.58203125 13.109375 11.58203125 11 12 C9.25 10.6875 9.25 10.6875 8 9 C8 8.34 8 7.68 8 7 C6.35 6.67 4.7 6.34 3 6 C2.67 4.68 2.34 3.36 2 2 C1.34 2 0.68 2 0 2 C0 1.34 0 0.68 0 0 Z " fill="#1E3B98" transform="translate(689,345)"/>
<path d="M0 0 C2.27891935 7.47159985 -2.58050208 15.42404246 -6 22 C-7.13702419 18.66472903 -6.88480118 16.91003798 -5.56640625 13.671875 C-5.24736328 12.87265625 -4.92832031 12.0734375 -4.59960938 11.25 C-4.25736328 10.425 -3.91511719 9.6 -3.5625 8.75 C-3.22412109 7.90953125 -2.88574219 7.0690625 -2.53710938 6.203125 C-1.70126562 4.13117428 -0.85533351 2.06396385 0 0 Z " fill="#2F4AA1" transform="translate(557,518)"/>
<path d="M0 0 C2.3125 0.1875 2.3125 0.1875 5 1 C6.0064275 2.66279327 7.00585407 4.32983484 8 6 C9.03125 6.495 10.0625 6.99 11.125 7.5 C14 9 14 9 14.875 11.6875 C14.936875 12.8321875 14.936875 12.8321875 15 14 C9.5355194 10.12518648 4.44425263 6.04144908 0 1 C0 0.67 0 0.34 0 0 Z " fill="#233F96" transform="translate(353,708)"/>
<path d="M0 0 C0.92565097 3.04838441 1.04155806 5.46489969 0.6875 8.625 C0.60886719 9.40101563 0.53023437 10.17703125 0.44921875 10.9765625 C0 13 0 13 -2 15 C-2.99 15 -3.98 15 -5 15 C-1.92482916 4.44191344 -1.92482916 4.44191344 0 0 Z " fill="#2441A0" transform="translate(597,584)"/>
<path d="M0 0 C6.93 0 13.86 0 21 0 C21 0.33 21 0.66 21 1 C13.74 1.66 6.48 2.32 -1 3 C-0.67 2.01 -0.34 1.02 0 0 Z " fill="#E5F5FE" transform="translate(426,323)"/>
<path d="M0 0 C-5.93852229 3.95901486 -12.08104381 4.24710558 -19 4 C-19 3.34 -19 2.68 -19 2 C-12.56971459 0.67611771 -6.5705166 -0.24794402 0 0 Z " fill="#2943A2" transform="translate(437,325)"/>
<path d="M0 0 C4.18139869 1.32006614 6.00070434 2.76758614 8.375 6.4375 C8.89835938 7.21996094 9.42171875 8.00242187 9.9609375 8.80859375 C11 11 11 11 10 14 C8.33041937 11.85637773 6.66423643 9.71026458 5 7.5625 C4.52304687 6.95083984 4.04609375 6.33917969 3.5546875 5.70898438 C0 1.11328125 0 1.11328125 0 0 Z " fill="#DCEBF9" transform="translate(716,368)"/>
<path d="M0 0 C1.32 0.33 2.64 0.66 4 1 C0.7 3.97 -2.6 6.94 -6 10 C-6.33 8.68 -6.66 7.36 -7 6 C-6.030625 5.38125 -5.06125 4.7625 -4.0625 4.125 C-0.97164638 2.34321154 -0.97164638 2.34321154 0 0 Z " fill="#ECFBFA" transform="translate(363,352)"/>
<path d="M0 0 C0 0.99 0 1.98 0 3 C-1.76505435 3.86604534 -3.53728074 4.71748642 -5.3125 5.5625 C-6.79169922 6.27599609 -6.79169922 6.27599609 -8.30078125 7.00390625 C-11 8 -11 8 -14 7 C-4.58997722 1.62870159 -4.58997722 1.62870159 0 0 Z " fill="#24409B" transform="translate(400,333)"/>
<path d="M0 0 C0.66 0.33 1.32 0.66 2 1 C1.2884375 1.5878125 1.2884375 1.5878125 0.5625 2.1875 C-1.21577182 3.93500943 -1.21577182 3.93500943 -1.4375 6.5625 C-2 9 -2 9 -4.0625 10.3125 C-4.701875 10.539375 -5.34125 10.76625 -6 11 C-6.99 10.34 -7.98 9.68 -9 9 C-6.03 6.03 -3.06 3.06 0 0 Z " fill="#E6F0FC" transform="translate(713,709)"/>
<path d="M0 0 C4.23429756 1.31061591 8.07407404 2.94356259 12 5 C11.34 5.66 10.68 6.32 10 7 C6.375 6.625 6.375 6.625 3 6 C2.67 5.01 2.34 4.02 2 3 C1.34 2.67 0.68 2.34 0 2 C0 1.34 0 0.68 0 0 Z " fill="#1E3BA3" transform="translate(674,337)"/>
<path d="M0 0 C0.66 0.33 1.32 0.66 2 1 C2.33 1.99 2.66 2.98 3 4 C4.40105576 5.42857119 4.40105576 5.42857119 6.0625 6.6875 C7.031875 7.450625 8.00125 8.21375 9 9 C8.67 9.66 8.34 10.32 8 11 C4.7 8.69 1.4 6.38 -2 4 C-1.34 3.67 -0.68 3.34 0 3 C0 2.01 0 1.02 0 0 Z " fill="#2242A0" transform="translate(373,721)"/>
<path d="M0 0 C1.1436661 3.98100566 0.94473261 6.93038258 0 11 C-2.0625 13.4375 -2.0625 13.4375 -4 15 C-5 13 -5 13 -4.00390625 9.9609375 C-3.52824219 8.77757812 -3.05257812 7.59421875 -2.5625 6.375 C-2.08941406 5.18648438 -1.61632812 3.99796875 -1.12890625 2.7734375 C-0.75636719 1.85820312 -0.38382813 0.94296875 0 0 Z " fill="#2C49A9" transform="translate(648,451)"/>
<path d="M0 0 C0 4.02677867 -1.05025476 6.49045857 -3 10 C-6.1875 10.9375 -6.1875 10.9375 -9 11 C-7.625 8.5 -7.625 8.5 -6 6 C-5.34 6 -4.68 6 -4 6 C-3.71125 5.38125 -3.4225 4.7625 -3.125 4.125 C-2 2 -2 2 0 0 Z " fill="#2B47AB" transform="translate(359,359)"/>
<path d="M0 0 C0.33 0 0.66 0 1 0 C1.53181175 2.24743045 2.05007126 4.49807102 2.5625 6.75 C2.85253906 8.00296875 3.14257812 9.2559375 3.44140625 10.546875 C3.93444283 13.59473748 4.07666879 15.17641828 3 18 C0.85198568 14.77797851 0.42832394 12.77828821 -0.1875 9 C-0.36667969 7.948125 -0.54585938 6.89625 -0.73046875 5.8125 C-1 3 -1 3 0 0 Z " fill="#DCEAFA" transform="translate(321,640)"/>
<path d="M0 0 C0.66 0 1.32 0 2 0 C1.60265845 1.94155532 1.18136959 3.87822038 0.75 5.8125 C0.40195312 7.43091797 0.40195312 7.43091797 0.046875 9.08203125 C-1.10978162 12.3059958 -2.09650135 13.29029522 -5 15 C-1.92482916 4.44191344 -1.92482916 4.44191344 0 0 Z " fill="#E5F3FC" transform="translate(533,507)"/>
<path d="M0 0 C0.33 0 0.66 0 1 0 C1 2.64 1 5.28 1 8 C0.34 8 -0.32 8 -1 8 C-1.268125 8.928125 -1.53625 9.85625 -1.8125 10.8125 C-2.94480421 13.85184289 -3.69900511 14.90073617 -6 17 C-4.13236819 11.27789404 -2.14710968 5.62338249 0 0 Z " fill="#2C47A1" transform="translate(516,513)"/>
<path d="M0 0 C0.33 0 0.66 0 1 0 C1 1.65 1 3.3 1 5 C0.34 5 -0.32 5 -1 5 C-0.67 7.31 -0.34 9.62 0 12 C-0.99 12.33 -1.98 12.66 -3 13 C-3.0270043 11.54176788 -3.04639787 10.08339325 -3.0625 8.625 C-3.07410156 7.81289063 -3.08570313 7.00078125 -3.09765625 6.1640625 C-3 4 -3 4 -2 2 C-1.34 2 -0.68 2 0 2 C0 1.34 0 0.68 0 0 Z " fill="#1235BC" transform="translate(517,519)"/>
<path d="M0 0 C0.66 0.33 1.32 0.66 2 1 C1.67 1.66 1.34 2.32 1 3 C1.639375 3.268125 2.27875 3.53625 2.9375 3.8125 C5 5 5 5 6 8 C6.99 8.33 7.98 8.66 9 9 C8.67 10.32 8.34 11.64 8 13 C5.03 9.7 2.06 6.4 -1 3 C-0.67 2.01 -0.34 1.02 0 0 Z " fill="#E4F2FA" transform="translate(707,355)"/>
<path d="M0 0 C1.32 0.66 2.64 1.32 4 2 C2.6905332 3.33631236 1.37734515 4.66897925 0.0625 6 C-0.66839844 6.7425 -1.39929688 7.485 -2.15234375 8.25 C-4 10 -4 10 -5 10 C-5 8.35 -5 6.7 -5 5 C-3.68 5 -2.36 5 -1 5 C-0.67 3.35 -0.34 1.7 0 0 Z " fill="#1E3AA2" transform="translate(711,706)"/>
<path d="M0 0 C2.36543716 2.36543716 3.27541323 4.57067205 4.625 7.625 C5.07101562 8.62789062 5.51703125 9.63078125 5.9765625 10.6640625 C6.31429688 11.43492187 6.65203125 12.20578125 7 13 C6.01 12.67 5.02 12.34 4 12 C4 11.34 4 10.68 4 10 C3.34 10 2.68 10 2 10 C0.39644899 6.49223216 -0.22036864 3.85645121 0 0 Z " fill="#DEEDFB" transform="translate(331,675)"/>
<path d="M0 0 C1.65 0 3.3 0 5 0 C4.32829194 3.8063457 3.27253436 7.35206816 2 11 C1.34 11 0.68 11 0 11 C0.08378906 10.37351562 0.16757812 9.74703125 0.25390625 9.1015625 C0.35574219 8.28429687 0.45757813 7.46703125 0.5625 6.625 C0.66691406 5.81289063 0.77132812 5.00078125 0.87890625 4.1640625 C1.18237328 1.95100814 1.18237328 1.95100814 0 0 Z " fill="#E2F1FC" transform="translate(608,542)"/>
<path d="M0 0 C0.66 0.33 1.32 0.66 2 1 C-0.97 8.92 -0.97 8.92 -4 17 C-5.01108373 12.95566508 -5.01374268 12.17073804 -3.6875 8.5 C-3.42324219 7.7471875 -3.15898438 6.994375 -2.88671875 6.21875 C-2.03097227 4.0774989 -1.06411184 2.0445817 0 0 Z " fill="#E4F3FD" transform="translate(556,517)"/>
<path d="M0 0 C3 4 3 4 3 6.125 C1.57671052 8.79366778 -0.19124829 9.1357687 -3 10 C-2.01 6.7 -1.02 3.4 0 0 Z " fill="#E8F3FD" transform="translate(483,525)"/>
<path d="M0 0 C0.66 0 1.32 0 2 0 C2 0.66 2 1.32 2 2 C3.32 2.33 4.64 2.66 6 3 C4.02 4.32 2.04 5.64 0 7 C-0.66 6.34 -1.32 5.68 -2 5 C-2 4.01 -2 3.02 -2 2 C-1.34 2 -0.68 2 0 2 C0 1.34 0 0.68 0 0 Z " fill="#193EA8" transform="translate(698,716)"/>
<path d="M0 0 C1.1577506 3.47325181 1.06866652 6.36067448 1 10 C0.01 10.495 0.01 10.495 -1 11 C-1.99 7.7 -2.98 4.4 -4 1 C-2.68 0.67 -1.36 0.34 0 0 Z " fill="#E9F4FC" transform="translate(742,404)"/>
<path d="M0 0 C3.63 1.65 7.26 3.3 11 5 C10.67 5.66 10.34 6.32 10 7 C2.18363463 5.08277831 2.18363463 5.08277831 0 2 C0 1.34 0 0.68 0 0 Z " fill="#DBEBFA" transform="translate(385,734)"/>
<path d="M0 0 C2.64 0 5.28 0 8 0 C8.33 0.99 8.66 1.98 9 3 C8.34 3.66 7.68 4.32 7 5 C3.535 3.02 3.535 3.02 0 1 C0 0.67 0 0.34 0 0 Z " fill="#1D3F9E" transform="translate(383,732)"/>
<path d="M0 0 C0.66 0 1.32 0 2 0 C2.74926071 3.66305234 3.2380014 6.42355152 2 10 C0.68 9.67 -0.64 9.34 -2 9 C-1.34 8.67 -0.68 8.34 0 8 C0 5.36 0 2.72 0 0 Z " fill="#1C3C9E" transform="translate(466,558)"/>
<path d="M0 0 C0.66 0.33 1.32 0.66 2 1 C1.32784675 4.8088684 0.46704554 8.41388869 -1 12 C-1.99 12.33 -2.98 12.66 -4 13 C-3.52140759 11.39566191 -3.04210442 9.79153584 -2.5625 8.1875 C-2.29566406 7.29417969 -2.02882813 6.40085937 -1.75390625 5.48046875 C-1.19612127 3.64526945 -0.60655425 1.81966274 0 0 Z " fill="#2A45A3" transform="translate(522,497)"/>
<path d="M0 0 C0.66 0.33 1.32 0.66 2 1 C2 1.66 2 2.32 2 3 C1.34 3 0.68 3 0 3 C-0.268125 3.969375 -0.53625 4.93875 -0.8125 5.9375 C-1.204375 6.948125 -1.59625 7.95875 -2 9 C-2.99 9.33 -3.98 9.66 -5 10 C-3.14285714 2.42857143 -3.14285714 2.42857143 0 0 Z " fill="#DDECFB" transform="translate(542,488)"/>
<path d="M0 0 C1.65 0 3.3 0 5 0 C5 1.32 5 2.64 5 4 C4.360625 4.103125 3.72125 4.20625 3.0625 4.3125 C2.381875 4.539375 1.70125 4.76625 1 5 C0.67 5.99 0.34 6.98 0 8 C-0.66 7.67 -1.32 7.34 -2 7 C-1.34 4.69 -0.68 2.38 0 0 Z " fill="#1E3F9E" transform="translate(525,488)"/>
<path d="M0 0 C0.66 0 1.32 0 2 0 C1.54554036 1.41791408 1.08625056 2.83428046 0.625 4.25 C0.36976563 5.03890625 0.11453125 5.8278125 -0.1484375 6.640625 C-0.95173667 8.86627958 -1.89711662 10.90931672 -3 13 C-4.39943663 10.20112673 -3.54753576 8.87861172 -2.625 5.9375 C-2.34914063 5.03902344 -2.07328125 4.14054687 -1.7890625 3.21484375 C-1 1 -1 1 0 0 Z " fill="#E9F6FE" transform="translate(646,452)"/>
<path d="M0 0 C4.95 0.99 4.95 0.99 10 2 C9.67 3.32 9.34 4.64 9 6 C8.1646875 5.566875 8.1646875 5.566875 7.3125 5.125 C4.91505355 3.9586747 2.48403061 2.9660119 0 2 C0 1.34 0 0.68 0 0 Z " fill="#213DA2" transform="translate(642,326)"/>
<path d="M0 0 C0.99 0.33 1.98 0.66 3 1 C1.68 4.63 0.36 8.26 -1 12 C-1.33 12 -1.66 12 -2 12 C-2.28571429 3.42857143 -2.28571429 3.42857143 0 0 Z " fill="#E3F1FB" transform="translate(522,491)"/>
<path d="M0 0 C1.53760842 3.07521683 0.36599236 5.34675118 -0.4375 8.625 C-0.72496094 9.81351562 -1.01242187 11.00203125 -1.30859375 12.2265625 C-1.53675781 13.14179688 -1.76492188 14.05703125 -2 15 C-2.33 15 -2.66 15 -3 15 C-3.08078641 12.87561661 -3.13909141 10.7503677 -3.1875 8.625 C-3.22230469 7.44164062 -3.25710938 6.25828125 -3.29296875 5.0390625 C-3.19628906 4.03617187 -3.09960938 3.03328125 -3 2 C-2.01 1.34 -1.02 0.68 0 0 Z " fill="#DAE9FB" transform="translate(325,414)"/>
<path d="M0 0 C0.33 0.66 0.66 1.32 1 2 C-1.69648689 4.69648689 -4.66611962 6.14784424 -8 8 C-8 7.01 -8 6.02 -8 5 C-6.25 3.61328125 -6.25 3.61328125 -4 2.3125 C-3.2575 1.87550781 -2.515 1.43851563 -1.75 0.98828125 C-1.1725 0.66214844 -0.595 0.33601562 0 0 Z M-10 8 C-9.01 8.495 -9.01 8.495 -8 9 C-8.99 9.495 -8.99 9.495 -10 10 C-10 9.34 -10 8.68 -10 8 Z " fill="#DEE9FB" transform="translate(689,729)"/>
<path d="M0 0 C0.99 0.66 1.98 1.32 3 2 C3 5 3 5 1.5 6.6875 C1.005 7.120625 0.51 7.55375 0 8 C0.66 8.33 1.32 8.66 2 9 C0.68 8.67 -0.64 8.34 -2 8 C-1.34 5.36 -0.68 2.72 0 0 Z " fill="#D4E1F7" transform="translate(449,613)"/>
<path d="M0 0 C0.33 0 0.66 0 1 0 C1.29359745 3.0534135 1.4451258 5.95743422 1 9 C-1.5 11.5625 -1.5 11.5625 -4 13 C-3.52140759 11.39566191 -3.04210442 9.79153584 -2.5625 8.1875 C-2.29566406 7.29417969 -2.02882813 6.40085937 -1.75390625 5.48046875 C-1.19612127 3.64526945 -0.60655425 1.81966274 0 0 Z " fill="#DDEAFB" transform="translate(454,600)"/>
<path d="M0 0 C0 2.31 0 4.62 0 7 C-1.98 7.99 -1.98 7.99 -4 9 C-3.4140625 2.84765625 -3.4140625 2.84765625 -3 1 C-1 0 -1 0 0 0 Z " fill="#083BA7" transform="translate(506,557)"/>
<path d="M0 0 C0.66 0 1.32 0 2 0 C2 0.66 2 1.32 2 2 C1.34 2 0.68 2 0 2 C-0.226875 2.639375 -0.45375 3.27875 -0.6875 3.9375 C-2 6 -2 6 -4.625 6.75 C-5.800625 6.87375 -5.800625 6.87375 -7 7 C-4.66666667 4.66666667 -2.33333333 2.33333333 0 0 Z " fill="#DFEEF9" transform="translate(701,720)"/>
<path d="M0 0 C0.66 0.33 1.32 0.66 2 1 C2.59355614 3.64860427 2.74209269 6.29197322 3 9 C2.34 9 1.68 9 1 9 C-1.09230769 4.56923077 -1.09230769 4.56923077 -0.625 1.6875 C-0.41875 1.130625 -0.2125 0.57375 0 0 Z " fill="#193797" transform="translate(328,660)"/>
<path d="M0 0 C0.33 0 0.66 0 1 0 C1.28571429 7.42857143 1.28571429 7.42857143 -1 11 C-1.66 11 -2.32 11 -3 11 C-2.32829194 7.1936543 -1.27253436 3.64793184 0 0 Z " fill="#DAEAF9" transform="translate(516,550)"/>
<path d="M0 0 C0.66 0 1.32 0 2 0 C2 2.31 2 4.62 2 7 C0.35 7 -1.3 7 -3 7 C-2.01 4.69 -1.02 2.38 0 0 Z " fill="#1639A7" transform="translate(627,507)"/>
<path d="M0 0 C0.99 0.99 1.98 1.98 3 3 C2.34 4.32 1.68 5.64 1 7 C-0.65 5.35 -2.3 3.7 -4 2 C-3.34 1.67 -2.68 1.34 -2 1 C-1.34 1.33 -0.68 1.66 0 2 C0 1.34 0 0.68 0 0 Z " fill="#DEEAF6" transform="translate(697,345)"/>
<path d="M0 0 C-2.62198774 2.15377564 -4.64404172 3.40072174 -8 4 C-8.33 2.68 -8.66 1.36 -9 0 C-5.93109813 -1.53445094 -3.29905734 -0.54984289 0 0 Z " fill="#213FA0" transform="translate(673,738)"/>
<path d="M0 0 C0.66 0.99 1.32 1.98 2 3 C0.35 4.65 -1.3 6.3 -3 8 C-3.66 6.35 -4.32 4.7 -5 3 C-4.34 2.67 -3.68 2.34 -3 2 C-3 2.66 -3 3.32 -3 4 C-2.34 3.67 -1.68 3.34 -1 3 C-0.67 2.01 -0.34 1.02 0 0 Z " fill="#2545A6" transform="translate(722,694)"/>
<path d="M0 0 C0.33 0 0.66 0 1 0 C1.43200679 4.75207471 -0.01510917 7.78210698 -2 12 C-2.66 12 -3.32 12 -4 12 C-3.52309796 10.37433394 -3.04340334 8.74948689 -2.5625 7.125 C-2.29566406 6.22007812 -2.02882813 5.31515625 -1.75390625 4.3828125 C-1 2 -1 2 0 0 Z " fill="#354CA3" transform="translate(602,571)"/>
<path d="M0 0 C1.31571603 0.2547514 2.62760376 0.52934141 3.9375 0.8125 C4.66839844 0.96332031 5.39929688 1.11414063 6.15234375 1.26953125 C6.76207031 1.51058594 7.37179687 1.75164062 8 2 C8.33 2.99 8.66 3.98 9 5 C5.7 4.01 2.4 3.02 -1 2 C-0.67 1.34 -0.34 0.68 0 0 Z " fill="#D5E5F5" transform="translate(663,330)"/>
<path d="M0 0 C3.3 0.99 6.6 1.98 10 3 C10 3.33 10 3.66 10 4 C7.69 4.33 5.38 4.66 3 5 C2.01 3.35 1.02 1.7 0 0 Z " fill="#213EA2" transform="translate(654,329)"/>
<path d="M0 0 C2.5 2.3125 2.5 2.3125 5 5 C5 5.99 5 6.98 5 8 C4.34 8 3.68 8 3 8 C3 7.34 3 6.68 3 6 C2.34 6 1.68 6 1 6 C0.67 4.02 0.34 2.04 0 0 Z " fill="#E3EEFC" transform="translate(344,698)"/>
<path d="M0 0 C1.485 0.99 1.485 0.99 3 2 C3 3.32 3 4.64 3 6 C2.34 6 1.68 6 1 6 C0.67 6.99 0.34 7.98 0 9 C-1.125 2.25 -1.125 2.25 0 0 Z " fill="#FAFCEF" transform="translate(329,678)"/>
<path d="M0 0 C0.99 0 1.98 0 3 0 C2.25 5.75 2.25 5.75 0 8 C-0.98120464 4.94736336 -0.98120464 3.05263664 0 0 Z " fill="#213F9C" transform="translate(571,569)"/>
<path d="M0 0 C2.125 0.375 2.125 0.375 4 1 C3.195625 1.61875 2.39125 2.2375 1.5625 2.875 C-1.03874519 4.74164041 -1.03874519 4.74164041 -2 7 C-2.66 7 -3.32 7 -4 7 C-2.92598892 4.08482708 -2.22189824 2.22189824 0 0 Z " fill="#DEEDFB" transform="translate(434,488)"/>
<path d="M0 0 C-2.05233685 2.2477975 -3.00667261 3.0022242 -6 4 C-6.99 3.34 -7.98 2.68 -9 2 C-3.375 -1.125 -3.375 -1.125 0 0 Z " fill="#DDEAFB" transform="translate(678,738)"/>
<path d="M0 0 C0.99 0.33 1.98 0.66 3 1 C3 2.65 3 4.3 3 6 C2.01 6.33 1.02 6.66 0 7 C0 4.69 0 2.38 0 0 Z " fill="#0B3AA3" transform="translate(614,549)"/>
<path d="M0 0 C0.66 0.33 1.32 0.66 2 1 C0.35 3.64 -1.3 6.28 -3 9 C-3.33 8.01 -3.66 7.02 -4 6 C-2.84338843 3.79192337 -1.77322566 1.77322566 0 0 Z " fill="#D5E4F8" transform="translate(449,448)"/>
<path d="M0 0 C2.96404505 2.80804268 5.44499019 5.18315774 7 9 C6.01 9 5.02 9 4 9 C4 8.01 4 7.02 4 6 C3.01 5.67 2.02 5.34 1 5 C0.67 3.35 0.34 1.7 0 0 Z " fill="#2A449D" transform="translate(722,377)"/>
<path d="M0 0 C0.66 0.99 1.32 1.98 2 3 C0.625 6.6875 0.625 6.6875 -1 10 C-1.66 10 -2.32 10 -3 10 C-2.01 6.7 -1.02 3.4 0 0 Z " fill="#DBEAF9" transform="translate(477,540)"/>
<path d="M0 0 C-0.75 7.75 -0.75 7.75 -3 10 C-3 7.03 -3 4.06 -3 1 C-1 0 -1 0 0 0 Z " fill="#DEEFFD" transform="translate(633,488)"/>
<path d="M0 0 C0.99 0.33 1.98 0.66 3 1 C3 1.66 3 2.32 3 3 C2.34 3 1.68 3 1 3 C1 3.66 1 4.32 1 5 C0.34 5 -0.32 5 -1 5 C-1.33 5.66 -1.66 6.32 -2 7 C-2.125 4.625 -2.125 4.625 -2 2 C-1.34 1.34 -0.68 0.68 0 0 Z " fill="#16379F" transform="translate(644,465)"/>
<path d="M0 0 C2.1875 0.3125 2.1875 0.3125 4 1 C1.03 3.475 1.03 3.475 -2 6 C-2.33 5.01 -2.66 4.02 -3 3 C-1.75 1.4375 -1.75 1.4375 0 0 Z " fill="#D8E9F9" transform="translate(363,352)"/>
</svg>
